<?xml version="1.0" encoding="UTF-8" standalone="no"?>
<!-- Created with Inkscape (http://www.inkscape.org/) -->

<svg
   width="9.5007038mm"
   height="9.5006962mm"
   viewBox="0 0 9.5007038 9.5006962"
   version="1.1"
   id="svg1"
   xml:space="preserve"
   xmlns:inkscape="http://www.inkscape.org/namespaces/inkscape"
   xmlns:sodipodi="http://sodipodi.sourceforge.net/DTD/sodipodi-0.dtd"
   xmlns="http://www.w3.org/2000/svg"
   xmlns:svg="http://www.w3.org/2000/svg"><sodipodi:namedview
     id="namedview1"
     pagecolor="#505050"
     bordercolor="#eeeeee"
     borderopacity="1"
     inkscape:showpageshadow="0"
     inkscape:pageopacity="0"
     inkscape:pagecheckerboard="0"
     inkscape:deskcolor="#505050"
     inkscape:document-units="mm" /><defs
     id="defs1" /><g
     inkscape:label="Layer 1"
     inkscape:groupmode="layer"
     id="layer1"
     transform="translate(-78.1915,-144.12858)"><path
       d="m 79.322537,144.12859 c -0.62217,0 -1.131038,0.50887 -1.131038,1.13103 v 7.23863 c 0,0.62217 0.508868,1.13104 1.131038,1.13104 h 7.238635 c 0.622161,0 1.131031,-0.50887 1.131031,-1.13104 v -7.23863 c 0,-0.62216 -0.50887,-1.13103 -1.131031,-1.13103 z m 0,0.45241 h 7.238635 c 0.378122,0 0.678622,0.3005 0.678622,0.67862 v 7.23863 c 0,0.37813 -0.3005,0.67862 -0.678622,0.67862 h -7.238635 c -0.378122,0 -0.678622,-0.30049 -0.678622,-0.67862 v -7.23863 c 0,-0.37812 0.3005,-0.67862 0.678622,-0.67862 z m 3.855238,0.90483 c -0.124746,0 -0.225948,0.10101 -0.226204,0.22577 0,0 -0.0025,1.1028 -0.0051,2.20817 -8.55e-4,0.55268 -0.0025,1.10593 -0.0034,1.52248 -8.55e-4,0.41655 -0.0017,0.68011 -0.0017,0.70204 0,0.41062 -0.372923,0.74621 -0.797905,0.74621 -0.421605,0 -0.75815,-0.33698 -0.75815,-0.75858 0,-0.4216 0.336545,-0.75815 0.75815,-0.75815 0.01428,0 0.0431,0.004 0.09233,0.0106 0.0643,0.008 0.128774,-0.0125 0.177174,-0.0554 0.04839,-0.043 0.07609,-0.10466 0.07601,-0.1694 v -0.95034 c -9e-6,-0.11943 -0.09287,-0.21828 -0.212064,-0.22576 -0.03522,-0.003 -0.0796,-0.007 -0.133424,-0.007 -1.187484,0 -2.155157,0.96768 -2.155157,2.15516 0,1.18747 0.967673,2.15515 2.155157,2.15515 1.18744,0 2.155149,-0.96768 2.155149,-2.15515 v -2.04691 c 0.329047,0.26316 0.739135,0.42987 1.192006,0.42987 0.06172,0 0.120514,-0.004 0.176728,-0.009 0.116403,-0.0108 0.205455,-0.10841 0.205429,-0.22532 v -1.05638 c 9.4e-5,-0.11863 -0.09153,-0.21717 -0.209858,-0.22576 -0.711332,-0.051 -1.278382,-0.60516 -1.352378,-1.30997 -0.01197,-0.11519 -0.109059,-0.20272 -0.224879,-0.20279 z m 0.225768,0.45241 h 0.516036 c 0.164408,0.74619 0.747496,1.31526 1.501278,1.45798 v 0.64813 c -0.483829,-0.0245 -0.908784,-0.26592 -1.158876,-0.64637 -0.05498,-0.0836 -0.158254,-0.12121 -0.254077,-0.0925 -0.09582,0.0287 -0.16139,0.11703 -0.161227,0.21706 v 2.60934 c 0,0.94294 -0.759766,1.70275 -1.702732,1.70275 -0.94294,0 -1.70274,-0.75981 -1.70274,-1.70275 0,-0.90495 0.705937,-1.62324 1.595819,-1.68108 v 0.49217 c -0.613833,0.0571 -1.103646,0.56077 -1.103646,1.18891 0,0.66601 0.544565,1.21101 1.210567,1.21101 0.662608,0 1.250322,-0.52166 1.250322,-1.19864 0,0.0112 4.45e-4,-0.2846 0.0017,-0.70115 8.54e-4,-0.41654 0.0025,-0.9698 0.0034,-1.52248 0.0017,-0.99234 0.0043,-1.79031 0.0043,-1.98241 z"
       id="path1-6"
       style="font-family:none;mix-blend-mode:normal;fill:#ffffff;fill-rule:nonzero;stroke:none;stroke-width:0.226207;stroke-linecap:butt;stroke-linejoin:miter;stroke-miterlimit:10;stroke-dasharray:none;stroke-dashoffset:0"
       inkscape:export-filename="tiktok.svg"
       inkscape:export-xdpi="53.469723"
       inkscape:export-ydpi="53.469723" /></g></svg>
