<?xml version="1.0" encoding="UTF-8" standalone="no"?>
<!-- Created with Inkscape (http://www.inkscape.org/) -->

<svg
   width="9.4926214mm"
   height="9.4926052mm"
   viewBox="0 0 9.4926214 9.4926052"
   version="1.1"
   id="svg1"
   xml:space="preserve"
   xmlns:inkscape="http://www.inkscape.org/namespaces/inkscape"
   xmlns:sodipodi="http://sodipodi.sourceforge.net/DTD/sodipodi-0.dtd"
   xmlns="http://www.w3.org/2000/svg"
   xmlns:svg="http://www.w3.org/2000/svg"><sodipodi:namedview
     id="namedview1"
     pagecolor="#505050"
     bordercolor="#eeeeee"
     borderopacity="1"
     inkscape:showpageshadow="0"
     inkscape:pageopacity="0"
     inkscape:pagecheckerboard="0"
     inkscape:deskcolor="#505050"
     inkscape:document-units="mm" /><defs
     id="defs1" /><g
     inkscape:label="Layer 1"
     inkscape:groupmode="layer"
     id="layer1"
     transform="translate(-92.744807,-143.90564)"><path
       id="path1"
       style="font-family:none;mix-blend-mode:normal;fill:#ffffff;fill-rule:nonzero;stroke:none;stroke-width:0.15821;stroke-linecap:butt;stroke-linejoin:miter;stroke-miterlimit:10;stroke-dasharray:none;stroke-dashoffset:0"
       d="m 94.010493,143.90563 c -0.697064,0 -1.265682,0.56861 -1.265682,1.26569 v 6.96125 c 0,0.69707 0.568618,1.26568 1.265682,1.26568 h 6.961257 c 0.69702,0 1.26568,-0.56861 1.26568,-1.26568 v -6.96125 c 0,-0.69708 -0.56866,-1.26569 -1.26568,-1.26569 z m 0,0.31642 h 6.961257 c 0.52621,0 0.94926,0.42306 0.94926,0.94927 v 6.96125 c 0,0.52621 -0.42305,0.94926 -0.94926,0.94926 h -6.961257 c -0.526202,0 -0.949262,-0.42305 -0.949262,-0.94926 v -6.96125 c 0,-0.52621 0.42306,-0.94927 0.949262,-0.94927 z m 3.052345,0.53953 c -0.005,-1.3e-4 -0.008,0.004 -0.01,0.0102 0.001,6e-5 0.002,2.5e-4 0.004,3.1e-4 5.2e-4,-6e-4 0.001,-0.001 0.002,-0.002 0.002,-0.002 0.008,-0.009 0.004,-0.009 z m 2.00019,0.24936 c 0.004,4.2e-4 0.006,0.002 0.01,0.002 0.001,0 0.002,-6e-4 0.004,-10e-4 -0.005,-4.1e-4 -0.009,-6e-4 -0.0139,-0.001 z m -4.103273,0.95142 2.047773,2.89291 -2.047773,2.48625 h 0.474631 l 1.792532,-2.17632 1.54039,2.17632 h 1.413392 l -2.196412,-3.09623 1.87998,-2.28293 h -0.47463 l -1.62505,1.97331 -1.39979,-1.97331 z m 0.611522,0.31643 h 0.630061 l 3.36691,4.74631 h -0.63717 z"
       inkscape:export-filename="x.svg"
       inkscape:export-xdpi="53.469723"
       inkscape:export-ydpi="53.469723" /></g></svg>
